<?xml version="1.0" encoding="UTF-8"?>
<!-- Created with Inkscape (http://www.inkscape.org/) -->
<svg width="17.779mm" height="17.721mm" version="1.1" viewBox="0 0 17.779 17.721" xmlns="http://www.w3.org/2000/svg" xmlns:cc="http://creativecommons.org/ns#" xmlns:dc="http://purl.org/dc/elements/1.1/" xmlns:rdf="http://www.w3.org/1999/02/22-rdf-syntax-ns#">
 <metadata>
  <rdf:RDF>
   <cc:Work rdf:about="">
    <dc:format>image/svg+xml</dc:format>
    <dc:type rdf:resource="http://purl.org/dc/dcmitype/StillImage"/>
    <dc:title/>
   </cc:Work>
  </rdf:RDF>
 </metadata>
 <g transform="translate(184.27 -15.997)">
  <g transform="matrix(.26458 0 0 .26458 -184.31 15.997)" fill="#fff" fill-rule="evenodd">
   <path id="Shape" d="m44.045 43.416c1.6039-6.1806-6.1662-10.84-6.1662-10.84-0.53153-0.23718-1.1053-0.27055-1.5771 0.4528l-1.2871 1.9041c-0.50629 0.73054-0.36878 1.1505 0.08035 1.5689 0 0 4.5762 2.5084 3.7413 5.7258-0.68708 2.6496-3.5611 3.1932-5.8324 2.608-1.8367-0.47334-3.9453-1.6854-6.1492-3.127-0.5784-0.35475-1.026-0.41841-1.5766 0.31265l-1.3216 1.7157c-0.61136 0.767-0.19211 1.3374 0.31264 1.7763 2.1879 1.9 5.1902 3.4448 7.9931 4.1677 5.5579 1.4323 10.496-1.303 11.783-6.2648"/>
   <path d="m44.271 19.885c-2.2018-1.7445-4.8219-2.9114-7.3704-3.4048-5.2432-1.016-10.324 0.78702-11.448 6.5508-0.67781 3.4746 0.4687 6.5112 5.1788 9.7394l-0.0031 0.0051c0.42183 0.3029 0.84726 0.59142 1.2778 0.84862 0.616 0.3681 1.3391 0.60528 1.9217-0.27107l1.3175-1.9123c0.56604-0.80191 0.3523-1.2362-0.20241-1.707-0.4996-0.3989-0.98272-0.79728-1.4483-1.1946l-0.0057 0.0098c-2.2971-1.6967-3.1243-3.0639-2.8235-4.6092 0.46715-2.3929 2.7236-3.2738 5.2721-2.7805 2.4496 0.47539 3.7563 1.3369 5.9463 2.6224 0.55007 0.30906 1.0888 0.41379 1.5946-0.35013l1.165-1.8025c0.51402-0.81269 0.11022-1.3471-0.37238-1.744"/>
   <path d="m33.745 66.977c-18.525 0-33.597-15.023-33.597-33.489s15.072-33.488 33.597-33.488c18.525 0 33.597 15.023 33.597 33.488s-15.072 33.489-33.597 33.489zm0-63.383c-16.538 0-29.992 13.411-29.992 29.894 0 16.484 13.454 29.895 29.992 29.895s29.992-13.411 29.992-29.895c0-16.484-13.454-29.894-29.992-29.894z"/>
  </g>
 </g>
</svg>
